<svg width="92" height="16" viewBox="0 0 92 16" fill="none" xmlns="http://www.w3.org/2000/svg">
<path d="M8 2.29401L9.854 6.05001L14 6.65601L11 9.57801L11.708 13.706L8 11.756L4.292 13.706L5 9.57801L2 6.65601L6.146 6.05001L8 2.29401Z" fill="#8162FF" stroke="#8162FF" stroke-linecap="round" stroke-linejoin="round"/>
<path d="M27 2.29401L28.854 6.05001L33 6.65601L30 9.57801L30.708 13.706L27 11.756L23.292 13.706L24 9.57801L21 6.65601L25.146 6.05001L27 2.29401Z" fill="#8162FF" stroke="#8162FF" stroke-linecap="round" stroke-linejoin="round"/>
<path d="M46 2.29401L47.854 6.05001L52 6.65601L49 9.57801L49.708 13.706L46 11.756L42.292 13.706L43 9.57801L40 6.65601L44.146 6.05001L46 2.29401Z" fill="#8162FF" stroke="#8162FF" stroke-linecap="round" stroke-linejoin="round"/>
<path d="M65 2.29401L66.854 6.05001L71 6.65601L68 9.57801L68.708 13.706L65 11.756L61.292 13.706L62 9.57801L59 6.65601L63.146 6.05001L65 2.29401Z" fill="#8162FF" stroke="#8162FF" stroke-linecap="round" stroke-linejoin="round"/>
<path d="M84 2.29401L85.854 6.05001L90 6.65601L87 9.57801L87.708 13.706L84 11.756L80.292 13.706L81 9.57801L78 6.65601L82.146 6.05001L84 2.29401Z" stroke="#8162FF" stroke-linecap="round" stroke-linejoin="round"/>
</svg>
